# xmcd
#
# Track frame offsets: 
#        150
#        13402
#        29522
#        42653
#        66447
#        85743
#        97289
#        109634
#        130387
#        145964
#        158420
#        178192
#        195154
#        208856
#        221254
#        234482
#
# Disc length: 3332 seconds
#
# Revision: 3
# Processed by: cddbd v1.5.2PL0 Copyright (c) Steve Scherf et al.
# Submitted via: ExactAudioCopy v0.99pb5
#
DISCID=ea0d0210
DTITLE=Bobby Bare - Bare Tracks - The Columbia Years
DYEAR=1999
DGENRE=Country
TTITLE0=Greasy Grit Gravy
TTITLE1=The Gambler (Bobby Bare and The Cowboys)
TTITLE2=Sleep Tight, Good Night Man
TTITLE3=Numbers
TTITLE4=Tequila Sheila
TTITLE5=Food Blues
TTITLE6=Take Me As I Am (Or Let Me Go)
TTITLE7=Let Him Roll
TTITLE8=New Cut Road
TTITLE9=Dropping Out Of Sight
TTITLE10=Appaloosa Rider
TTITLE11=Willie Jones (Bobby Bare and Charlie Daniels)
TTITLE12=Diet Song
TTITLE13=If You Aint Got Nothin' (You Got Nothin' To Lose)
TTITLE14=Rough On The Living
TTITLE15=No Memories Hangin' Round (Bobby Bare and Rosanne Cash)
EXTD=The Columbia Years
EXTT0=
EXTT1=
EXTT2=
EXTT3=
EXTT4=
EXTT5=
EXTT6=
EXTT7=
EXTT8=
EXTT9=
EXTT10=
EXTT11=
EXTT12=
EXTT13=
EXTT14=
EXTT15=
PLAYORDER=
